<svg width="32" height="32" xmlns="http://www.w3.org/2000/svg">

 <g>
  <title>background</title>
  <rect fill="none" id="canvas_background" height="402" width="582" y="-1" x="-1"/>
 </g>
 <g>
  <title>Layer 1</title>
  <path id="mail" fill="#ffffff" d="m28,5l-24,0c-2.209,0 -4,1.792 -4,4l0,13c0,2.209 1.791,4 4,4l24,0c2.209,0 4,-1.791 4,-4l0,-13c0,-2.208 -1.791,-4 -4,-4zm-26,5.25l6.999,5.25l-6.999,5.25l0,-10.5zm28,11.75c0,1.104 -0.898,2 -2,2l-24,0c-1.103,0 -2,-0.896 -2,-2l7.832,-5.875l4.368,3.277c0.533,0.398 1.166,0.6 1.8,0.6c0.633,0 1.266,-0.201 1.799,-0.6l4.369,-3.277l7.832,5.875l0,0zm0,-1.25l-7,-5.25l7,-5.25l0,10.5zm-12.801,-2.148c-0.349,0.262 -0.763,0.4 -1.199,0.4c-0.436,0 -0.851,-0.139 -1.2,-0.4l-4.135,-3.102l-0.833,-0.625l-7.832,-5.874l0,-0.001c0,-1.103 0.897,-2 2,-2l24,0c1.102,0 2,0.897 2,2l-12.801,9.602z"/>
 </g>
</svg>