<svg xmlns="http://www.w3.org/2000/svg" width="32" height="32"><g><title>background</title><rect id="canvas_background" width="582" height="402" x="-1" y="-1" fill="none"/></g><g><title>Layer 1</title><path id="svg_2" fill="#fff" d="m4.5,20c-0.053,0 -0.106,-0.009 -0.158,-0.025c-0.204,-0.069 -0.342,-0.26 -0.342,-0.475l0,-3.5l-1.5,0c-0.827,0 -1.5,-0.673 -1.5,-1.5l0,-12c0,-0.827 0.673,-1.5 1.5,-1.5l15,0c0.827,0 1.5,0.673 1.5,1.5l0,5c0,0.276 -0.224,0.5 -0.5,0.5s-0.5,-0.224 -0.5,-0.5l0,-5c0,-0.275 -0.225,-0.5 -0.5,-0.5l-15,0c-0.275,0 -0.5,0.225 -0.5,0.5l0,12c0,0.275 0.225,0.5 0.5,0.5l2,0c0.276,0 0.5,0.224 0.5,0.5l0,2.5l2.1,-2.8c0.094,-0.126 0.243,-0.2 0.4,-0.2l1,0c0.276,0 0.5,0.224 0.5,0.5s-0.224,0.5 -0.5,0.5l-0.75,0l-2.85,3.8c-0.096,0.129 -0.246,0.2 -0.4,0.2z"/><path id="svg_5" fill="#263238" d="m4.5,10.5l3,0l-3,0z"/><path id="svg_6" fill="#fff" d="m7.5,11l-3,0c-0.276,0 -0.5,-0.224 -0.5,-0.5s0.224,-0.5 0.5,-0.5l3,0c0.276,0 0.5,0.224 0.5,0.5s-0.224,0.5 -0.5,0.5z"/><path id="svg_8" fill="#263238" d="m12.5,8.5l3,0l-3,0z"/><path id="svg_9" fill="#fff" d="m15.5,9l-3,0c-0.276,0 -0.5,-0.224 -0.5,-0.5s0.224,-0.5 0.5,-0.5l3,0c0.276,0 0.5,0.224 0.5,0.5s-0.224,0.5 -0.5,0.5z"/><path id="svg_11" fill="#263238" d="m4.5,8.5l6,0l-6,0z"/><path id="svg_12" fill="#fff" d="m10.5,9l-6,0c-0.276,0 -0.5,-0.224 -0.5,-0.5s0.224,-0.5 0.5,-0.5l6,0c0.276,0 0.5,0.224 0.5,0.5s-0.224,0.5 -0.5,0.5z"/><path id="svg_14" fill="#263238" d="m4.5,6.5l11,0l-11,0z"/><path id="svg_15" fill="#fff" d="m15.5,7l-11,0c-0.276,0 -0.5,-0.224 -0.5,-0.5s0.224,-0.5 0.5,-0.5l11,0c0.276,0 0.5,0.224 0.5,0.5s-0.224,0.5 -0.5,0.5z"/><path id="svg_17" fill="#fff" d="m27.5,31c-0.154,0 -0.304,-0.071 -0.4,-0.2l-2.85,-3.8l-12.75,0c-0.827,0 -1.5,-0.673 -1.5,-1.5l0,-13c0,-0.827 0.673,-1.5 1.5,-1.5l5,0c0.276,0 0.5,0.224 0.5,0.5s-0.224,0.5 -0.5,0.5l-5,0c-0.275,0 -0.5,0.225 -0.5,0.5l0,13c0,0.275 0.225,0.5 0.5,0.5l13,0c0.157,0 0.306,0.074 0.4,0.2l2.1,2.8l0,-2.5c0,-0.276 0.224,-0.5 0.5,-0.5l2,0c0.275,0 0.5,-0.225 0.5,-0.5l0,-13c0,-0.275 -0.225,-0.5 -0.5,-0.5l-5.5,0l0,1.5c0,0.183 -0.1,0.351 -0.26,0.438c-0.16,0.087 -0.354,0.081 -0.509,-0.017l-5.5,-3.5c-0.144,-0.091 -0.231,-0.25 -0.231,-0.421s0.087,-0.33 0.231,-0.422l5.5,-3.5c0.154,-0.098 0.348,-0.104 0.509,-0.017c0.16,0.088 0.26,0.256 0.26,0.439l0,1.5l3.5,0c0.276,0 0.5,0.224 0.5,0.5s-0.224,0.5 -0.5,0.5l-4,0c-0.276,0 -0.5,-0.224 -0.5,-0.5l0,-1.089l-4.068,2.589l4.068,2.589l0,-1.089c0,-0.276 0.224,-0.5 0.5,-0.5l6,0c0.827,0 1.5,0.673 1.5,1.5l0,13c0,0.827 -0.673,1.5 -1.5,1.5l-1.5,0l0,3.5c0,0.215 -0.138,0.406 -0.342,0.475c-0.052,0.016 -0.105,0.025 -0.158,0.025z"/><path id="svg_20" fill="#263238" d="m13.5,20.5l6,0l-6,0z"/><path id="svg_21" fill="#fff" d="m19.5,21l-6,0c-0.276,0 -0.5,-0.224 -0.5,-0.5s0.224,-0.5 0.5,-0.5l6,0c0.276,0 0.5,0.224 0.5,0.5s-0.224,0.5 -0.5,0.5z"/><path id="svg_23" fill="#263238" d="m13.5,18.5l3,0l-3,0z"/><path id="svg_24" fill="#fff" d="m16.5,19l-3,0c-0.276,0 -0.5,-0.224 -0.5,-0.5s0.224,-0.5 0.5,-0.5l3,0c0.276,0 0.5,0.224 0.5,0.5s-0.224,0.5 -0.5,0.5z"/><path id="svg_26" fill="#263238" d="m23.5,16.5l4,0l-4,0z"/><path id="svg_27" fill="#fff" d="m27.5,17l-4,0c-0.276,0 -0.5,-0.224 -0.5,-0.5s0.224,-0.5 0.5,-0.5l4,0c0.276,0 0.5,0.224 0.5,0.5s-0.224,0.5 -0.5,0.5z"/><path id="svg_29" fill="#263238" d="m18.5,18.5l9,0l-9,0z"/><path id="svg_30" fill="#fff" d="m27.5,19l-9,0c-0.276,0 -0.5,-0.224 -0.5,-0.5s0.224,-0.5 0.5,-0.5l9,0c0.276,0 0.5,0.224 0.5,0.5s-0.224,0.5 -0.5,0.5z"/><path id="svg_32" fill="#263238" d="m13.5,16.5l8,0l-8,0z"/><path id="svg_33" fill="#fff" d="m21.5,17l-8,0c-0.276,0 -0.5,-0.224 -0.5,-0.5s0.224,-0.5 0.5,-0.5l8,0c0.276,0 0.5,0.224 0.5,0.5s-0.224,0.5 -0.5,0.5z"/><circle id="svg_34" cx="21.5" cy="20.5" r=".5" fill="#fff"/><circle id="svg_35" cx="29.5" cy="8.5" r=".5" fill="#fff"/></g></svg>