<svg id="svg" xmlns="http://www.w3.org/2000/svg" xmlns:xlink="http://www.w3.org/1999/xlink" width="400" height="3.508771929824561" viewBox="0, 0, 400,3.508771929824561"><g id="svgg"><path id="path0" d="M274.963 0.292 C 274.877 0.699,275.192 1.723,275.453 1.884 C 275.871 2.143,276.475 2.826,276.581 3.158 C 276.685 3.485,276.821 3.494,281.769 3.495 C 285.065 3.495,286.814 3.438,286.749 3.331 C 286.693 3.241,286.726 3.167,286.823 3.167 C 286.921 3.167,287.000 3.241,287.000 3.332 C 287.000 3.440,306.355 3.497,343.500 3.499 L 400.000 3.502 400.000 1.751 L 400.000 0.000 343.500 0.000 C 305.944 0.000,287.000 0.056,287.000 0.167 C 287.000 0.258,286.921 0.333,286.823 0.333 C 286.726 0.333,286.692 0.260,286.748 0.170 C 286.812 0.066,285.643 0.007,283.508 0.008 C 280.292 0.008,280.167 0.021,280.167 0.337 C 280.167 0.519,280.055 0.667,279.917 0.667 C 279.779 0.667,279.667 0.742,279.667 0.833 C 279.667 0.925,279.367 1.000,279.000 1.000 C 278.633 1.000,278.333 0.925,278.333 0.833 C 278.333 0.742,278.221 0.667,278.083 0.667 C 277.944 0.667,277.833 0.519,277.833 0.333 C 277.833 -0.143,275.063 -0.184,274.963 0.292 M268.412 1.938 C 268.189 2.178,268.044 2.436,268.089 2.509 C 268.135 2.583,268.103 2.686,268.018 2.739 C 267.934 2.791,267.904 2.984,267.952 3.167 C 268.075 3.639,270.719 3.675,270.981 3.208 C 271.136 2.931,271.150 2.931,271.257 3.208 C 271.352 3.455,271.592 3.500,272.817 3.500 L 274.266 3.500 274.261 2.958 C 274.256 2.439,274.185 2.286,273.696 1.744 C 273.348 1.358,272.425 1.444,271.864 1.917 C 271.591 2.146,271.224 2.333,271.048 2.333 C 270.871 2.333,270.564 2.146,270.364 1.917 C 269.858 1.334,268.962 1.344,268.412 1.938 " stroke="none" fill="#ac4c94" fill-rule="evenodd"></path><path id="path1" d="M134.500 0.169 C 134.291 0.306,134.312 0.350,134.625 0.436 C 135.032 0.548,135.029 0.536,135.061 2.250 L 135.083 3.417 201.561 3.459 C 267.970 3.500,268.039 3.500,267.952 3.167 C 267.904 2.984,267.934 2.791,268.018 2.739 C 268.103 2.686,268.135 2.583,268.089 2.509 C 267.623 1.755,269.743 1.202,270.364 1.917 C 270.823 2.444,271.237 2.444,271.864 1.917 C 272.886 1.056,274.280 1.638,274.259 2.917 L 274.250 3.417 275.458 3.466 C 276.123 3.493,276.667 3.469,276.667 3.413 C 276.667 3.039,275.632 1.834,275.310 1.834 C 275.177 1.833,274.933 0.683,274.983 0.292 C 275.027 -0.049,135.018 -0.171,134.500 0.169 M277.833 0.333 C 277.833 0.519,277.944 0.667,278.083 0.667 C 278.221 0.667,278.333 0.742,278.333 0.833 C 278.333 0.925,278.633 1.000,279.000 1.000 C 279.367 1.000,279.667 0.925,279.667 0.833 C 279.667 0.742,279.779 0.667,279.917 0.667 C 280.056 0.667,280.167 0.519,280.167 0.333 C 280.167 0.032,280.056 0.000,279.000 0.000 C 277.944 0.000,277.833 0.032,277.833 0.333 M128.302 2.531 C 128.057 2.776,128.005 2.918,128.142 2.964 C 128.299 3.016,128.302 3.087,128.153 3.266 C 127.990 3.463,128.126 3.500,129.000 3.500 C 129.874 3.500,130.010 3.463,129.847 3.266 C 129.698 3.087,129.701 3.016,129.858 2.964 C 130.159 2.864,129.410 2.167,129.000 2.167 C 128.817 2.167,128.503 2.331,128.302 2.531 M131.837 2.532 C 131.586 2.767,131.517 2.922,131.646 2.965 C 131.800 3.017,131.801 3.088,131.653 3.266 C 131.490 3.463,131.626 3.500,132.500 3.500 C 133.374 3.500,133.510 3.463,133.347 3.266 C 133.198 3.087,133.201 3.016,133.358 2.964 C 133.646 2.868,132.919 2.167,132.531 2.167 C 132.365 2.167,132.053 2.331,131.837 2.532 M121.547 2.534 C 120.970 3.255,121.102 3.500,122.069 3.500 L 122.993 3.500 122.692 2.958 C 122.369 2.379,121.831 2.180,121.547 2.534 M124.917 2.667 C 124.751 2.850,124.673 3.000,124.745 3.000 C 124.816 3.000,124.781 3.112,124.667 3.250 C 124.486 3.468,124.594 3.500,125.500 3.500 C 126.406 3.500,126.514 3.468,126.333 3.250 C 126.183 3.069,126.179 3.000,126.319 3.000 C 126.460 3.000,126.464 2.911,126.333 2.667 C 126.220 2.455,125.984 2.333,125.687 2.333 C 125.429 2.333,125.083 2.483,124.917 2.667 M270.939 3.251 C 270.881 3.402,270.940 3.500,271.089 3.500 C 271.358 3.500,271.419 3.240,271.184 3.094 C 271.102 3.043,270.992 3.114,270.939 3.251 " stroke="none" fill="#84449c" fill-rule="evenodd"></path><path id="path2" d="M69.583 0.167 C 69.527 0.258,69.528 0.333,69.585 0.333 C 69.643 0.333,69.412 0.596,69.072 0.917 C 68.732 1.237,68.333 1.501,68.185 1.503 C 67.951 1.505,67.949 1.526,68.167 1.667 C 68.386 1.808,68.384 1.829,68.154 1.831 C 67.957 1.833,67.909 1.959,67.964 2.333 C 68.015 2.680,67.968 2.834,67.811 2.836 C 67.622 2.838,67.622 2.863,67.806 2.980 C 67.928 3.057,68.022 3.187,68.014 3.269 C 68.006 3.354,79.208 3.434,94.553 3.459 L 121.106 3.501 121.345 2.959 C 121.664 2.233,122.277 2.213,122.666 2.917 C 122.996 3.514,124.267 3.732,124.660 3.258 C 124.778 3.116,124.816 3.000,124.745 3.000 C 124.673 3.000,124.751 2.850,124.917 2.667 C 125.313 2.229,126.099 2.229,126.333 2.667 C 126.464 2.911,126.460 3.000,126.319 3.000 C 126.179 3.000,126.183 3.069,126.333 3.250 C 126.600 3.572,127.890 3.583,128.153 3.266 C 128.302 3.087,128.299 3.016,128.142 2.964 C 127.841 2.864,128.590 2.167,129.000 2.167 C 129.410 2.167,130.159 2.864,129.858 2.964 C 129.408 3.114,130.051 3.500,130.750 3.500 C 131.446 3.500,132.092 3.114,131.646 2.965 C 131.365 2.872,132.146 2.167,132.531 2.167 C 132.919 2.167,133.646 2.868,133.358 2.964 C 132.885 3.122,133.558 3.500,134.312 3.500 L 135.083 3.500 135.060 2.208 C 135.028 0.470,135.048 0.552,134.625 0.436 C 134.312 0.350,134.291 0.306,134.500 0.169 C 134.665 0.061,123.628 0.004,102.218 0.003 C 80.707 0.001,69.651 0.056,69.583 0.167 " stroke="none" fill="#7444a4" fill-rule="evenodd"></path><path id="path3" d="M0.013 1.750 L -0.010 3.500 33.967 3.500 C 64.058 3.500,67.944 3.471,67.944 3.250 C 67.944 3.112,67.863 2.999,67.764 2.997 C 67.665 2.996,67.687 2.929,67.814 2.849 C 67.956 2.759,68.014 2.534,67.963 2.268 C 67.901 1.946,67.949 1.833,68.148 1.831 C 68.382 1.829,68.385 1.808,68.167 1.667 C 67.949 1.526,67.951 1.505,68.185 1.503 C 68.480 1.500,69.558 0.526,69.625 0.203 C 69.658 0.044,62.081 0.000,34.851 0.000 L 0.036 -0.000 0.013 1.750 " stroke="none" fill="#6144a4" fill-rule="evenodd"></path></g></svg>