<svg xmlns="http://www.w3.org/2000/svg" width="32" height="32"><title/><desc/><g><title>background</title><rect id="canvas_background" width="582" height="402" x="-1" y="-1" fill="none"/></g><g><title>Layer 1</title><path id="cloud-upload" fill="#b496bc" d="m16,16l-3.25,3.25l-0.75,-0.75l4.5,-4.5l4.5,4.5l-0.75,0.75l-3.25,-3.25l0,11l-1,0l0,-11l0,0zm-1,5l-6.99718,0c-2.20488,0 -4.00282,-1.79086 -4.00282,-4c0,-1.89539 1.32461,-3.48826 3.10101,-3.89785l0,0c-0.06633,-0.35727 -0.10101,-0.72566 -0.10101,-1.10215c0,-3.31371 2.68629,-6 6,-6c2.61544,0 4.84003,1.67346 5.66142,4.00804c0.77436,-0.63023 1.76235,-1.00804 2.83858,-1.00804c2.35834,0 4.29296,1.81417 4.48444,4.12307l0,0c1.73005,0.44003 3.01556,2.00895 3.01556,3.87693c0,2.20464 -1.79212,4 -4.00282,4l-6.99718,0l0,1l7.00056,0c2.76111,0 4.99944,-2.2442 4.99944,-5c0,-2.09642 -1.28671,-3.89149 -3.11714,-4.63449l0,0c-0.52284,-2.49326 -2.73421,-4.36551 -5.38286,-4.36551c-0.8629,0 -1.67938,0.19872 -2.40619,0.55288c-1.20263,-2.12143 -3.48105,-3.55288 -6.09381,-3.55288c-3.86599,0 -7,3.13401 -7,7c0,0.13815 0.004,0.27537 0.0119,0.41154l0,0c-1.77224,0.77007 -3.0119,2.53759 -3.0119,4.58846c0,2.76142 2.23249,5 4.99944,5l7.00056,0l0,-1l0,0l0,0z"/></g></svg>